# xmcd CD database file
#
# Track frame offsets:
#	150
#	21427
#	47950
#	69367
#
# Disc length: 1066 seconds
#
# Revision: 0
# Processed by: cddbd v1.5.1PL0 Copyright (c) Steve Scherf et al.
# Submitted via: CDex 1.51
#
DISCID=32042804
DTITLE=SeiichiYukimura - 真実
DYEAR=2003
DGENRE=Anime
TTITLE0=真実
TTITLE1=真実 (Remix Version)
TTITLE2=真実 (Original Karaoke)
TTITLE3=VOICE MESSAGE
EXTD=YEAR: 2003
EXTT0=
EXTT1=
EXTT2=
EXTT3=
PLAYORDER=
